<svg xmlns="http://www.w3.org/2000/svg" viewBox="0 0 200 200" role="img" aria-label="ESTAÇÃO VELHA"><circle cx="100" cy="100" r="98" fill="#24443a" stroke="#e2b04a" stroke-width="4"/><circle cx="100" cy="100" r="66" fill="#1f6068" stroke="#e2b04a" stroke-width="3"/><defs><path id="crest-arc-estacao-velha" d="M 22 100 A 78 78 0 1 1 178 100"/><path id="crest-lower-estacao-velha" d="M 30 106 A 70 70 0 0 0 170 106"/></defs><text fill="#f6efe2" font-family="Figtree, Arial, sans-serif" font-size="15" font-weight="800" letter-spacing="2.5"><textPath href="#crest-arc-estacao-velha" startOffset="50%" text-anchor="middle">ESTAÇÃO VELHA</textPath></text><text fill="#e2b04a" font-family="Figtree, Arial, sans-serif" font-size="11" font-weight="800" letter-spacing="3"><textPath href="#crest-lower-estacao-velha" startOffset="50%" text-anchor="middle">SALTOPIA · 2028</textPath></text><g transform="translate(58 58) scale(3.5)"><path d="M7 3h10a2.5 2.5 0 0 1 2.5 2.5V15a2.5 2.5 0 0 1-2.5 2.5H7A2.5 2.5 0 0 1 4.5 15V5.5A2.5 2.5 0 0 1 7 3zm1 3.5v4.5h8V6.5zM8 13a1.4 1.4 0 1 0 0 2.8A1.4 1.4 0 0 0 8 13zm8 0a1.4 1.4 0 1 0 0 2.8 1.4 1.4 0 0 0 0-2.8zM6.5 18.5L4.5 22h2.2l1-1.6h8.6l1 1.6h2.2l-2-3.5z" fill="#f6efe2"/></g></svg>